<svg width="48" height="48" viewBox="0 0 48 48" fill="none" xmlns="http://www.w3.org/2000/svg">
  <g id="Filled=False">
  <path id="Union" fill-rule="evenodd" clip-rule="evenodd" d="M40 24C40 32.8366 32.8366 40 24 40C15.1634 40 8 32.8366 8 24C8 15.1634 15.1634 8 24 8C32.8366 8 40 15.1634 40 24ZM43 24C43 34.4934 34.4934 43 24 43C13.5066 43 5 34.4934 5 24C5 13.5066 13.5066 5 24 5C34.4934 5 43 13.5066 43 24ZM29.8182 16L32 18.1818L26.1818 24L32 29.8182L29.8182 32L24 26.1818L18.1818 32L16 29.8182L21.8182 24L16 18.1818L18.1818 16L24 21.8182L29.8182 16Z" fill="#fff"/>
  </g>
</svg>