<svg xmlns="http://www.w3.org/2000/svg" width="161" height="32" viewBox="0 0 161 32" fill="none">
  <mask id="mask0_0_8455" style="mask-type:luminance" maskUnits="userSpaceOnUse" x="0" y="0" width="161" height="32">
  <path fill-rule="evenodd" clip-rule="evenodd" d="M0.499756 0H160.5V32H0.499756V0Z" fill="white"/>
  </mask>
  <g mask="url(#mask0_0_8455)">
  <path fill-rule="evenodd" clip-rule="evenodd" d="M155.222 8.02018C155.222 9.47757 156.403 10.659 157.86 10.659C159.318 10.659 160.5 9.47757 160.5 8.02018C160.5 6.56222 159.318 5.38028 157.86 5.38028C156.403 5.38028 155.222 6.56222 155.222 8.02018ZM146.803 5.60888H141.227L148.845 18.8039L141.227 32H146.803L154.422 18.8039L146.803 5.60888ZM135.955 17.6242C135.955 19.221 134.7 20.2477 132.723 20.2477C131.049 20.2477 129.909 19.3728 129.909 18.1181C129.909 17.0535 130.669 16.4451 132.533 16.0274C133.711 15.761 134.662 15.6848 135.955 15.6086V17.6242ZM140.746 17.7382V11.8448C140.746 8.99271 140.289 8.11783 138.844 6.97709C137.552 5.91255 135.726 5.38028 133.407 5.38028C130.694 5.38028 128.494 5.9577 126.081 7.35018L128.171 10.9711C129.954 9.99404 131.804 9.44879 133.293 9.44879C134.472 9.44879 135.384 9.86704 135.726 10.5895C135.916 11.0078 135.916 10.8559 135.916 12.1107C131.81 12.3766 129.148 12.9088 127.514 13.8599C126.031 14.7342 125.156 16.331 125.156 18.1181C125.156 21.5025 128.236 24.126 132.228 24.126C134.32 24.126 135.651 23.5175 136.677 22.1488C137.628 23.4035 138.844 24.0498 140.175 24.0498C140.323 24.0498 140.443 24.0498 140.576 24.0413L142.569 20.5898C141.012 20.2472 140.746 19.7905 140.746 17.7382ZM62.722 18.998C61.8223 19.2221 61.4051 19.2599 60.8006 19.2599C59.0124 19.2599 58.518 18.6515 58.518 16.4456V9.52329H62.722V5.60549H58.518V0H53.688V5.60549H50.8731V9.52329H53.688V18.4991C53.688 20.5531 53.8399 21.2756 54.4105 22.0364C55.1714 23.0632 56.7304 23.6338 58.8606 23.6338C60.2791 23.6338 61.5524 23.4628 62.722 23.1083V18.998ZM68.77 14.7534C68.77 17.7258 70.8178 19.8091 73.5543 19.8091C76.2907 19.8091 78.3571 17.7258 78.3571 14.7534C78.3571 11.7805 76.2907 9.69771 73.5543 9.69771C70.8178 9.69771 68.77 11.7805 68.77 14.7534ZM83.0403 14.7534C83.0403 20.1202 79.0107 24.126 73.5543 24.126C68.1158 24.126 64.1049 20.1202 64.1049 14.7534C64.1049 9.3867 68.1158 5.38028 73.5543 5.38028C79.0107 5.38028 83.0403 9.3867 83.0403 14.7534ZM35.79 14.7534C35.79 17.7258 37.8378 19.8091 40.5743 19.8091C43.3101 19.8091 45.3771 17.7258 45.3771 14.7534C45.3771 11.7805 43.3101 9.69771 40.5743 9.69771C37.8378 9.69771 35.79 11.7805 35.79 14.7534ZM50.0598 14.7534C50.0598 20.1202 46.0308 24.126 40.5743 24.126C35.1358 24.126 31.1249 20.1202 31.1249 14.7534C31.1249 9.3867 35.1358 5.38028 40.5743 5.38028C46.0308 5.38028 50.0598 9.3867 50.0598 14.7534ZM119.704 23.5937H114.077L111.225 12.757L108.64 23.5937H102.784L97.879 5.60888H102.784L105.787 17.776L108.64 5.60888H113.773L116.853 17.776L119.704 5.60888H124.686L119.704 23.5937ZM85.3314 23.5937V5.60888H89.8182L90.0846 7.62394C91.5674 6.06495 92.8222 5.38028 94.3055 5.38028C94.8372 5.38028 95.2939 5.41866 96.0926 5.60888V10.1335C95.7883 10.0951 95.5219 10.0951 95.4457 10.0951C93.6971 10.0951 92.5558 10.4377 91.5674 11.2742C90.351 12.2625 90.0846 13.099 90.0846 15.6086V23.5937H85.3314ZM23.6561 23.5937V13.8599C23.6561 11.0078 22.6678 9.7152 20.5003 9.7152C19.2834 9.7152 18.1804 10.2853 17.5342 11.2742C17.0019 12.1107 16.8122 12.985 16.8122 14.6202V23.5937H12.059V14.3538C12.059 12.7948 11.8688 11.8065 11.4884 11.1218C10.9939 10.2853 9.92938 9.75302 8.82702 9.75302C6.54553 9.75302 5.21457 11.3498 5.21457 14.1636V23.5937H0.499756V5.60888H4.94872L5.21457 7.09167C6.96379 5.83635 8.21855 5.38028 9.92938 5.38028C12.1731 5.38028 13.8083 6.17896 15.6331 8.11783C17.6866 6.17896 19.3974 5.38028 21.5649 5.38028C23.9604 5.38028 25.9754 6.3308 27.2308 8.08001C28.1813 9.41097 28.4471 10.4755 28.4471 13.099V23.5937H23.6561Z" fill="white"/>
  </g>
</svg>