<svg xmlns="http://www.w3.org/2000/svg" width="48" height="48" viewBox="0 0 48 48" fill="none">
  <path fill-rule="evenodd" clip-rule="evenodd" d="M38.6586 10.4436C43.9307 15.7157 43.9307 24.2635 38.6586 29.5355C33.745 34.4491 25.9862 34.7832 20.6857 30.5379L8.60657 42.617L6.48525 40.4957L18.5643 28.4166C14.319 23.1161 14.6532 15.3572 19.5667 10.4436C24.8388 5.17157 33.3865 5.17157 38.6586 10.4436ZM36.5373 12.565C32.4368 8.46446 25.7886 8.46446 21.688 12.565C17.5875 16.6655 17.5875 23.3137 21.688 27.4142C25.7886 31.5147 32.4368 31.5147 36.5373 27.4142C40.6378 23.3137 40.6378 16.6655 36.5373 12.565Z" fill="#ffffff"/>
</svg>