<svg width="24" height="24" viewBox="0 0 24 24" fill="none" xmlns="http://www.w3.org/2000/svg">
<rect width="24" height="24" rx="12" fill="black" fill-opacity="0.5"/>
<path d="M15.7794 8.22593C15.5454 7.99193 15.1674 7.99193 14.9334 8.22593L11.9994 11.1539L9.06545 8.21993C8.83145 7.98593 8.45345 7.98593 8.21945 8.21993C7.98545 8.45393 7.98545 8.83193 8.21945 9.06593L11.1534 11.9999L8.21945 14.9339C7.98545 15.1679 7.98545 15.5459 8.21945 15.7799C8.45345 16.0139 8.83145 16.0139 9.06545 15.7799L11.9994 12.8459L14.9334 15.7799C15.1674 16.0139 15.5454 16.0139 15.7794 15.7799C16.0134 15.5459 16.0134 15.1679 15.7794 14.9339L12.8454 11.9999L15.7794 9.06593C16.0074 8.83793 16.0074 8.45393 15.7794 8.22593Z" fill="white"/>
</svg>
